<svg width="16" height="16" viewBox="0 0 16 16" fill="none" xmlns="http://www.w3.org/2000/svg">
<path d="M12.0858 11.4628L15.298 14.6742L14.2367 15.7355L11.0253 12.5233C9.8303 13.4812 8.344 14.0022 6.8125 14C3.0865 14 0.0625 10.976 0.0625 7.25C0.0625 3.524 3.0865 0.5 6.8125 0.5C10.5385 0.5 13.5625 3.524 13.5625 7.25C13.5647 8.7815 13.0437 10.2678 12.0858 11.4628ZM10.5812 10.9062C11.5331 9.92741 12.0647 8.61532 12.0625 7.25C12.0625 4.349 9.71275 2 6.8125 2C3.9115 2 1.5625 4.349 1.5625 7.25C1.5625 10.1503 3.9115 12.5 6.8125 12.5C8.17782 12.5022 9.48991 11.9706 10.4688 11.0187L10.5812 10.9062Z" fill="black"/>
</svg>
